# xmcd
#
# Track frame offsets: 
#        150
#        13945
#        29867
#        42559
#        56632
#        75298
#        86728
#        100047
#        113290
#        126985
#        144497
#        159218
#        176667
#        190472
#        208760
#        232352
#        243945
#        257051
#        269833
#        283218
#        296810
#        310476
#        326100
#        340587
#
# Disc length: 4726 seconds
#
# Revision: 2
# Processed by: cddbd v1.5.2PL0 Copyright (c) Steve Scherf et al.
# Submitted via: ExactAudioCopyFreeDBPlugin 1.0
#
DISCID=75127418
DTITLE=Various Artist - JazzPiano History CD10 - Swing
DYEAR=1900
DGENRE=Jazz
TTITLE0=Duke Ellington and Jimmy Blanton - Pitter Panther Patter
TTITLE1=Duke Ellington - Solitude
TTITLE2=Duke Ellengton and Billy Strayhorn - Tonk
TTITLE3=Sammy Price - Boogin' With Big Sid
TTITLE4=Sammy Price and His Bluesicians - Paris Lament
TTITLE5=Lester Young and King Cole Trio - Honeysuckle Rose
TTITLE6=Lester Young and King Cole Trio - Indiana
TTITLE7=King Cole Trio - It's Only A Papermoon
TTITLE8=King Cole Trio - What Is This Thing Called Love
TTITLE9=King Cole Trio, Lester Young, Buddy Rich - Back To The Land
TTITLE10=Jimmy Jones Trio - Easy To Love
TTITLE11=Jimmy Jones Trio - Just Squeeze Me
TTITLE12=Sir Charles Thompson and Coleman Hawkins - Stuffy
TTITLE13=Sir Charles Thompson - Swingtime In The Rockies
TTITLE14=Eddie Heywood - Begin The Beguine
TTITLE15=Mel Powell and His Orchestra - The World Is Waiting For Sunri
TTITLE15=se
TTITLE16=Mel Powell and His Orchestra - Blue Skies
TTITLE17=Lionel Hampton and His Orchestra - China Stomp (Chinatown)
TTITLE18=Lionel Hampton and His Orchestra - Piano Stomp (Shine)
TTITLE19=Johnny Guarnieri Swing Men - Salute To Fats
TTITLE20=Johnny Guarnieri Swing Men - Basie English
TTITLE21=Johnny Guarnieri Trio - Gliss Me Again
TTITLE22=Joe Bushkin and Muggsy Spainer - Ralaxin' At The Touro
TTITLE23=Joe Bushkin and Eddie Condon - Stars Fell On Alabama
EXTD=
EXTT0=
EXTT1=
EXTT2=
EXTT3=
EXTT4=
EXTT5=
EXTT6=
EXTT7=
EXTT8=
EXTT9=
EXTT10=
EXTT11=
EXTT12=
EXTT13=
EXTT14=
EXTT15=
EXTT16=
EXTT17=
EXTT18=
EXTT19=
EXTT20=
EXTT21=
EXTT22=
EXTT23=
PLAYORDER=
